<svg width="22" height="22" viewBox="0 0 22 22" fill="none" xmlns="http://www.w3.org/2000/svg">
<g id="svgexport-17 (10) 1">
<g id="Group">
<path id="Vector" d="M0.0411187 4.50193C0.136674 3.8631 0.457954 3.27965 0.94672 2.85735C1.43549 2.43504 2.05938 2.20183 2.70532 2.2H19.2948C19.9407 2.20183 20.5646 2.43504 21.0534 2.85735C21.5421 3.27965 21.8634 3.8631 21.959 4.50193L11.0001 11.5933L0.0411187 4.50193Z" fill="#DFDFDF"/>
<path id="Vector_2" d="M10.6018 13.0827C10.7204 13.1594 10.8587 13.2002 11 13.2002C11.1413 13.2002 11.2796 13.1594 11.3982 13.0827L22 6.22306V17.0947C21.9992 17.812 21.714 18.4996 21.2068 19.0068C20.6996 19.514 20.012 19.7992 19.2947 19.8H2.70527C1.98802 19.7992 1.30038 19.514 0.793211 19.0068C0.286043 18.4996 0.000775971 17.812 -4.76837e-07 17.0947V6.22233L10.6018 13.0827Z" fill="#DFDFDF"/>
</g>
</g>
</svg>
