<svg width="157" height="174" viewBox="0 0 157 174" fill="none" xmlns="http://www.w3.org/2000/svg">
<g id="Group">
<g id="Group_2">
<path id="Vector" d="M35.1288 122.359C45.9476 122.993 46.7328 105.857 35.8267 105.683C24.1477 105.587 23.244 121.549 35.1288 122.359ZM53.4492 109.701C50.7008 113.997 52.8072 120.445 57.5802 122.281C70.4731 126.383 75.076 106.563 61.3694 105.257C58.1201 104.985 55.2494 107.185 53.4492 109.701ZM87.3451 122.391C98.6917 121.519 97.6638 105.775 86.5321 105.713C75.5172 105.706 76.2761 123.013 87.3451 122.391Z" fill="#FFB7BF"/>
<path id="Vector_2" d="M110.333 64.1758C112.14 54.5567 112.343 44.5268 110.772 34.7837C107.286 12.0673 91.7631 -2.99166 68.0358 1.6008C51.3528 4.57925 39.1517 17.8962 38.5178 34.9383C37.5532 43.8356 39.2611 52.844 38.4582 61.7063C37.2116 61.7514 35.9661 61.805 34.7219 61.8713C28.9718 62.29 23.0324 62.4106 17.4305 63.8451C1.78181 68.9865 -1.70253 88.2459 1.80943 102.384C1.48844 110.9 0.982213 123.042 0.824921 131.445C-0.906978 143.188 1.20114 157.365 12.0014 164.309C20.9304 169.318 31.8202 167.83 41.6761 168.787C64.1719 169.238 86.7859 167.836 109.271 166.94C112.54 166.801 112.793 161.746 109.568 161.254C101.698 159.845 93.5697 158.886 85.5539 158.514C72.6239 158.09 58.7182 158.743 45.7849 159.494C36.8273 159.45 23.6852 161.846 15.6821 158.158C7.05733 152.844 5.84143 141.057 6.97851 131.75C6.94584 124.604 7.10516 116.75 7.28434 109.559C7.30994 107.702 7.45443 104.018 7.52449 102.157C7.53144 101.999 7.52671 101.841 7.51034 101.683C7.65821 98.771 7.84278 95.8956 8.283 93.1119C9.6892 82.672 14.3393 72.642 26.2426 72.6251C40.6296 70.7979 55.1409 69.1903 69.6943 69.3095C82.0487 69.4422 95.564 69.7029 107.899 69.9697C112.887 70.1593 117.903 69.8626 122.838 70.3358C125.495 70.4086 129.452 72.6066 130.504 68.934C131.975 63.1627 115.911 64.4453 110.333 64.1758ZM44.2332 61.5689C44.8981 53.6551 43.7219 45.6578 44.4424 37.7652C44.9112 22.6527 53.9472 11.3283 69.1574 9.34685C100.241 5.62304 103.308 40.5547 104.27 63.8296C99.7075 63.6292 94.5573 63.4449 90.7004 63.2193C75.3686 62.4965 59.7465 61.3671 44.2332 61.5689Z" fill="#FFB7BF"/>
</g>
<g id="Group_3">
<path id="Vector_3" d="M136.716 156.527C125.652 156.595 124.694 172.669 136.21 173.224C147.742 173.352 148.979 156.38 136.716 156.527ZM133.978 143.074C132.786 139.183 131.552 133.631 134.297 129.711C140.325 121.219 154.049 111.43 144.348 100.867C139.121 94.0415 127.955 95.6272 123.835 102.877C122.492 105.035 121.818 107.52 121.688 110.087C121.503 113.716 115.811 113.396 116.015 109.78C116.121 98.3409 126.476 88.7289 137.912 89.9162C149.206 91.1543 159.33 103.285 156.528 114.784C154.54 123.239 147.709 129.252 141.57 134.866C139.655 136.29 140.256 140.391 139.671 142.683C139.336 145.742 134.705 146.026 133.978 143.074Z" fill="#A799F8"/>
</g>
</g>
</svg>
