<svg width="20" height="21" viewBox="0 0 20 21" fill="none" xmlns="http://www.w3.org/2000/svg">
<g id="Group">
<g id="Group_2">
<g id="Group_3">
<path id="Vector" d="M8.74878 13.755C8.74878 13.5076 8.82217 13.2657 8.95968 13.0599C9.09719 12.8542 9.29262 12.6938 9.52127 12.5992C9.74992 12.5045 10.0015 12.4798 10.2442 12.5281C10.4869 12.5765 10.7098 12.6957 10.8847 12.8708C11.0596 13.0459 11.1787 13.2689 11.2269 13.5116C11.275 13.7543 11.2501 14.0059 11.1553 14.2345C11.0604 14.463 10.8999 14.6583 10.6941 14.7957C10.4882 14.933 10.2462 15.0062 9.99878 15.006C9.66717 15.0058 9.34923 14.8739 9.11483 14.6393C8.88044 14.4047 8.74878 14.0866 8.74878 13.755Z" fill="#DFDFDF"/>
<path id="Vector_2" fill-rule="evenodd" clip-rule="evenodd" d="M9.99588 3.5653e-05C8.47131 0.00109547 7.00949 0.60727 5.93154 1.6854C4.8536 2.76354 4.24768 4.22546 4.24688 5.75004V6.86704C4.247 6.93217 4.2554 6.99702 4.27188 7.06004C3.56121 7.32118 2.91913 7.74031 2.39408 8.28581C1.86902 8.8313 1.47471 9.48892 1.24088 10.209C0.990625 11.3737 0.908124 12.5681 0.995883 13.756C0.908124 14.944 0.990625 16.1384 1.24088 17.303C1.48468 18.0537 1.90273 18.736 2.46083 19.2941C3.01892 19.8522 3.70121 20.2702 4.45188 20.514C5.61553 20.764 6.80891 20.8465 7.99588 20.759H11.9959C13.1839 20.8468 14.3783 20.7643 15.5429 20.514C16.2936 20.2702 16.9758 19.8522 17.5339 19.2941C18.092 18.736 18.5101 18.0537 18.7539 17.303C19.0041 16.1384 19.0866 14.944 18.9989 13.756C19.0866 12.5681 19.0041 11.3737 18.7539 10.209C18.5205 9.48933 18.1268 8.83198 17.6024 8.28651C17.0781 7.74105 16.4368 7.32169 15.7269 7.06004C15.7436 6.99706 15.752 6.93218 15.7519 6.86704V5.75004C15.7369 4.22726 15.1331 2.76938 14.0669 1.68204C13.5378 1.14025 12.9041 0.711741 12.2043 0.422584C11.5044 0.133427 10.7531 -0.0103378 9.99588 3.5653e-05ZM11.9959 6.75004C12.9609 6.75004 13.6769 6.75004 14.2469 6.78404V5.75004C14.2643 5.18095 14.1673 4.61415 13.9616 4.08326C13.7559 3.55237 13.4456 3.0682 13.0493 2.65948C12.6529 2.25076 12.1785 1.9258 11.6541 1.70389C11.1298 1.48198 10.5662 1.36764 9.99688 1.36764C9.42753 1.36764 8.86397 1.48198 8.33964 1.70389C7.81531 1.9258 7.34088 2.25076 6.94451 2.65948C6.54814 3.0682 6.23788 3.55237 6.03216 4.08326C5.82643 4.61415 5.72942 5.18095 5.74688 5.75004V6.78704C6.31788 6.75004 7.03388 6.75004 7.99588 6.75004H11.9959ZM7.24388 13.75C7.24507 13.2062 7.4074 12.675 7.71035 12.2234C8.01331 11.7718 8.44332 11.4201 8.94604 11.2128C9.44877 11.0055 10.0017 10.9518 10.5349 11.0586C11.0681 11.1653 11.5577 11.4277 11.9419 11.8126C12.3261 12.1974 12.5876 12.6875 12.6933 13.2209C12.7991 13.7543 12.7444 14.3071 12.5362 14.8095C12.3279 15.3118 11.9755 15.7412 11.5234 16.0433C11.0712 16.3455 10.5397 16.5068 9.99588 16.507C9.26697 16.506 8.56827 16.2157 8.05322 15.6999C7.53817 15.1841 7.24888 14.485 7.24888 13.756L7.24388 13.75Z" fill="#DFDFDF"/>
</g>
</g>
<g id="Group_4">
<g id="Group_5">
<path id="Vector_3" fill-rule="evenodd" clip-rule="evenodd" d="M9.9998 3.05176e-05C8.4747 0.000295406 7.01212 0.606119 5.93352 1.68434C4.85493 2.76256 4.2486 4.22493 4.2478 5.75003V6.86703C4.2478 6.93403 4.2568 6.99803 15.7528 6.86703V5.75003C15.752 4.22476 15.1455 2.76223 14.0667 1.68398C12.9879 0.605736 11.5251 3.03102e-05 9.9998 3.05176e-05ZM11.9998 6.75303C12.9648 6.75303 13.6808 6.75303 14.2508 6.78703V5.75003C14.2683 5.18094 14.1713 4.61414 13.9655 4.08325C13.7598 3.55236 13.4496 3.0682 13.0532 2.65948C12.6568 2.25075 12.1824 1.9258 11.658 1.70389C11.1337 1.48198 10.5702 1.36763 10.0008 1.36763C9.43145 1.36763 8.86789 1.48198 8.34356 1.70389C7.81923 1.9258 7.3448 2.25075 6.94843 2.65948C6.55206 3.0682 6.2418 3.55236 6.03608 4.08325C5.83035 4.61414 5.73334 5.18094 5.7508 5.75003V6.78703C6.3188 6.75003 7.0338 6.75003 7.9988 6.75003L11.9998 6.75303Z" fill="#DFDFDF"/>
</g>
</g>
</g>
</svg>
