<svg width="21" height="21" viewBox="0 0 21 21" fill="none" xmlns="http://www.w3.org/2000/svg">
<g id="Group">
<path id="Vector" d="M19.9852 15.5422L16.9457 13.4184C16.6931 13.242 16.4082 13.1171 16.1073 13.0508C15.8064 12.9845 15.4954 12.9782 15.1921 13.0321C14.8887 13.086 14.599 13.1992 14.3394 13.3651C14.0797 13.5311 13.8554 13.7465 13.6791 13.9992L12.9735 15.0106C11.7912 14.2178 10.4715 13.1106 9.21377 11.8524C7.95648 10.5951 6.8493 9.2754 6.05645 8.09316L7.06698 7.38758C7.32059 7.21213 7.53679 6.98803 7.70302 6.72829C7.86925 6.46855 7.9822 6.17837 8.03529 5.8746C8.08964 5.57111 8.08338 5.25986 8.01687 4.9588C7.95036 4.65775 7.82492 4.37283 7.64778 4.12048L5.52492 1.08138C5.08064 0.446167 4.36379 0.0661623 3.60848 0.0661623C3.34781 0.0660686 3.08921 0.112294 2.84472 0.202682C2.56835 0.304157 2.3034 0.434353 2.05421 0.591131L1.63433 0.88669C1.53042 0.968504 1.43171 1.05672 1.33877 1.15082C0.826471 1.66218 0.463356 2.31053 0.258342 3.07617C-0.616606 6.35547 1.55036 11.3148 5.65112 15.415C9.09461 18.8585 13.231 20.9978 16.4465 20.9978C16.9978 20.9978 17.5166 20.934 17.99 20.8074C18.7561 20.6028 19.404 20.2397 19.9158 19.7274C20.0092 19.634 20.0978 19.5365 20.1931 19.4131L20.4886 18.9913C20.6391 18.7482 20.7646 18.4904 20.863 18.2219C21.221 17.2555 20.8597 16.153 19.9852 15.5417V15.5422Z" fill="#DFDFDF"/>
</g>
</svg>
