<svg width="20" height="21" viewBox="0 0 20 21" fill="none" xmlns="http://www.w3.org/2000/svg">
<g id="Group">
<path id="Vector" d="M13.1561 12.097H6.8441C6.07605 12.0967 5.31548 12.2478 4.60585 12.5416C3.89622 12.8354 3.25144 13.2662 2.70835 13.8093C2.16526 14.3523 1.73451 14.9971 1.44071 15.7068C1.14692 16.4164 0.995831 17.177 0.996094 17.945C0.996094 18.5696 1.24421 19.1686 1.68586 19.6103C2.12751 20.0519 2.72651 20.3 3.35109 20.3H16.6511C17.2757 20.3 17.8747 20.0519 18.3163 19.6103C18.758 19.1686 19.0061 18.5696 19.0061 17.945C19.0064 17.1768 18.8552 16.4161 18.5613 15.7063C18.2674 14.9965 17.8364 14.3517 17.2931 13.8086C16.7498 13.2654 16.1048 12.8347 15.395 12.541C14.6851 12.2474 13.9243 12.0965 13.1561 12.097Z" fill="#DFDFDF"/>
<path id="Vector_2" d="M10.0001 10.428C12.8797 10.428 15.2141 8.09361 15.2141 5.214C15.2141 2.33439 12.8797 0 10.0001 0C7.12052 0 4.78613 2.33439 4.78613 5.214C4.78613 8.09361 7.12052 10.428 10.0001 10.428Z" fill="#DFDFDF"/>
</g>
</svg>
